<?xml version="1.0" encoding="UTF-8"?>
<svg width="100px" height="89px" viewBox="0 0 100 89" version="1.1" xmlns="http://www.w3.org/2000/svg" xmlns:xlink="http://www.w3.org/1999/xlink">
    <title>digi_2x</title>
    <g id="CPG-Food-Processing" stroke="none" stroke-width="1" fill="none" fill-rule="evenodd">
        <g id="digi_2x">
            <path d="M1.89829045,36.1932549 C-0.447064489,37.7129389 -0.81189748,40.6160594 1.89829045,42.1567046 L15.8036393,49.4931102 C15.8036393,48.9166784 15.8036393,48.4450523 15.8036393,47.9734262 L5.21305877,41.9261318 C2.50287084,40.3854867 2.86770383,37.4718856 5.21305877,35.9522015 L30.4803493,19.864512 L30.4803493,18.9212598 L1.89829045,36.1932549 Z" id="Path" fill="#213C45"></path>
            <path d="M5.21924436,35.8998574 C2.87120019,37.4136626 2.50594888,40.3159925 5.21924436,41.8506778 L15.8428397,47.9163386 C15.8428397,47.2794964 15.7697895,48.9603422 15.8428397,46.4860537 C15.91589,44.0117652 17.9926046,41.0885552 17.9926046,41.0885552 L30.5676856,34.3547321 L30.5676856,33.9058106 L30.5676856,19.8848425 L5.21924436,35.8998574 Z" id="Path" fill="#1CA392"></path>
            <path d="M17.103906,85.6381749 C17.2498272,89.8226528 21.3981604,89.6238901 24.3999693,87.6258019 L50.9263709,69.8417709 L51.3537118,23.0383858 L50.4052236,23.5509844 C42.8277406,28.4049787 21.5545046,38.5523376 15.1965066,42.5694363 C15.8218834,56.0225327 16.6661422,71.620174 17.103906,85.6381749 Z" id="Path" fill="#F7A744"></path>
            <path d="M50.23378,66.6078101 L31.7852378,56.947845 L30.7423581,57.58557 L50.1607784,69.4723452 L59.2129743,75.0132343 C63.7912163,77.7836789 64.1562242,77.7000428 68.5467478,74.4800544 L100,51.3546834 L99.0926946,50.894685 L76.8480703,64.9769069 C69.9546354,69.3364366 66.4192732,75.6927773 58.7436784,71.0614304 L50.23378,66.6078101 Z" id="Path" fill="#213C45"></path>
            <path d="M70.0595819,57.6322968 L50.6328562,45.3458116 L31.790393,56.9526189 L58.7603639,71.0899193 C66.4079417,75.7221856 69.9761158,69.3645831 76.8724991,65.0041879 L99.1266376,50.8982573 L71.1342074,35.8407776 L70.6334111,35.6525591 L70.0595819,57.6322968 Z" id="Path" fill="#1CA392"></path>
            <path d="M30.5676856,1.04518185 L63.6929876,17.7680915 C68.9046462,20.3601425 68.1958606,19.7121297 68.9046462,27.6241564 L69.9469779,58.3525028 L70.3222173,58.6033465 L71.0726961,25.742829 C71.2081993,18.6460442 70.7495733,18.719207 65.3398717,16.2003187 L30.5676856,0 L30.5676856,1.04518185 Z" id="Path" fill="#213C45"></path>
            <path d="M63.6005529,17.7060308 L30.4803493,0.963582677 L30.4803493,34.3438386 L50.5213032,23.8798085 L50.0523262,46.2205127 L70.2183406,58.515748 L68.8739396,27.531755 C68.1444197,19.6104843 68.8114094,20.2592541 63.6005529,17.7060308 Z" id="Path" fill="#0F5B7D"></path>
            <path d="M27.1473209,83.9766239 C24.0986305,85.9112598 21.2900767,88.0236731 19.8388166,87.3857661 C18.7216595,86.894264 18.7112188,84.2485187 18.4293194,81.4354535 C17.6775875,74.021092 16.3933789,56.0864941 15.7460542,46.3610271 C15.641647,44.8028608 15.5581213,43.4538444 15.4850362,42.3976378 L15.1091703,42.6277026 C15.1926961,44.3078729 15.2762218,46.0229015 15.3597476,47.7727884 C15.3597476,48.2852055 15.4223919,48.8185376 15.4432734,49.3309546 C16.0279537,61.0642601 16.6648376,73.9060596 17.0511443,85.639365 C17.1973144,89.8223616 21.3527211,89.6236693 24.3596485,87.6262884 L39.4464894,77.5661816 L39.4464894,77.5661816 L40.1982213,77.0537645 L51.0043668,69.8903829 L51.0043668,69.8903829 L50.8895189,69.8171804 L27.1473209,83.9766239 Z" id="Path" fill="#213C45"></path>
            <path d="M79.2387012,40.2076772 L79.30131,8.23425197 L64.8908297,15.9480106 L65.3708312,16.1675078 C70.7865005,18.6864995 71.2456324,18.6133338 71.1099798,25.7104098 L70.8804139,35.7550197 L71.1308494,35.8490899 L79.2387012,40.2076772 Z" id="Path" fill="#F7A744"></path>
            <path d="M43.0567686,75.1149106 L65.5075878,86.3957418 C67.8433906,87.7561389 69.1259966,87.3584844 69.0634305,84.7423362 L69.3449782,73.8591595 L68.5107629,74.4765704 C64.1207049,77.6996651 63.7557357,77.7833818 59.1779792,75.0102647 L50.8358262,69.9035433 L43.0567686,75.1149106 Z" id="Path" fill="#0F5B7D"></path>
            <path d="M43.0567686,75.1149106 L65.5075878,86.3957418 C67.8433906,87.7561389 69.1259966,87.3584844 69.0634305,84.7423362 L69.3449782,73.8591595 L68.5107629,74.4765704 C64.1207049,77.6996651 63.7557357,77.7833818 59.1779792,75.0102647 L50.8358262,69.9035433 L43.0567686,75.1149106 Z" id="Path" stroke="#000000" stroke-width="0.5" stroke-linecap="round" stroke-linejoin="round"></path>
            <polygon id="Path" fill="#213C45" points="65.2043282 16.0943421 77.8278672 10.9100273 79.1968105 40.1658682 79.2595102 40.2076772 79.30131 8.23425197 64.8908297 15.9480106"></polygon>
            <path d="M68.3960583,83.6818365 C68.4586244,86.3006767 67.1760184,86.6987405 64.8402156,85.3369435 L43.3591716,74.8615825 L43.0567686,75.0606143 L65.5075878,86.394955 C67.8433906,87.7567519 69.1259966,87.3586882 69.0634305,84.7398479 L69.3449782,73.8454724 L69.1364243,74.0026029 L68.3960583,83.6818365 Z" id="Path" fill="#213C45"></path>
        </g>
    </g>
</svg>